# xmcd CD database file
#
# Track frame offsets:
#	150
#	16647
#	33721
#	54949
#	82422
#	94437
#	113410
#	132836
#	154981
#	182054
#	207389
#	223011
#
# Disc length: 3071 seconds
#
# Revision: 0
# Processed by: cddbd v1.5.2PL0 Copyright (c) Steve Scherf et al.
# Submitted via: CDex 1.70beta2
#
DISCID=a60bfd0c
DTITLE=Marc Lezwijn - The Airy Ghost of Man
DYEAR=1900
DGENRE=Jazz
TTITLE0=Found Love Nearby
TTITLE1=Latin Legs Danse
TTITLE2=Goofin' 'n Groovin'
TTITLE3=Hancock Tribute
TTITLE4=Rumba de Tuti
TTITLE5=Sevillanas
TTITLE6=Breakfast At Midnight
TTITLE7=Get That Chicken
TTITLE8=Vic's Blues
TTITLE9=Do Your Do
TTITLE10=Fade In Fade Out
TTITLE11=I Remember
EXTD=
EXTT0=
EXTT1=
EXTT2=
EXTT3=
EXTT4=
EXTT5=
EXTT6=
EXTT7=
EXTT8=
EXTT9=
EXTT10=
EXTT11=
PLAYORDER=
